<svg width="89" height="89" viewBox="0 0 89 89" fill="none" xmlns="http://www.w3.org/2000/svg">
<path d="M38.1587 70.4583H22.25V74.1667C22.25 76.0208 20.7667 77.875 18.5417 77.875H14.8333C12.9792 77.875 11.125 76.0208 11.125 74.1667V44.5L18.9125 22.25C19.6542 20.025 21.5083 18.5417 24.1042 18.5417H64.8958C67.1208 18.5417 69.3458 20.025 70.0875 22.25L77.5412 43.5358C74.782 40.503 71.2989 38.2192 67.4175 36.8979L63.4125 25.9583H25.2167L21.5083 37.0833H51.5829C47.4296 38.5667 43.7954 41.1625 41.0883 44.5H18.5417V63.0417H35.8967C36.2675 65.6746 37.0833 68.1592 38.1587 70.4583ZM22.25 53.7708C22.25 56.7375 24.8458 59.3333 27.8125 59.3333C30.7792 59.3333 33.375 56.7375 33.375 53.7708C33.375 50.8042 30.7792 48.2083 27.8125 48.2083C24.8458 48.2083 22.25 50.8042 22.25 53.7708ZM59.7413 43.0537C50.4704 43.0537 43.0537 50.4704 43.0537 59.7412C43.0537 69.0121 50.4704 76.4287 59.7413 76.4287C63.0417 76.4287 66.0083 75.5017 68.6042 73.9071L80.1371 85.2917L85.2917 80.1371L73.87 68.6042C75.5017 66.0825 76.4287 63.0417 76.4287 59.7412C76.4287 50.4704 69.0121 43.0537 59.7413 43.0537ZM59.7413 50.4704C64.8958 50.4704 69.0121 54.6237 69.0121 59.7412C69.0121 64.8587 64.8958 69.0121 59.7413 69.0121C54.5867 69.0121 50.4704 64.8958 50.4704 59.7412C50.4704 54.5867 54.6238 50.4704 59.7413 50.4704Z" fill="black"/>
</svg>
