<svg width="55" height="55" viewBox="0 0 55 55" fill="none" xmlns="http://www.w3.org/2000/svg">
<path d="M20.4102 37.8125H34.5898C34.8262 37.8125 35.0195 37.6191 35.0195 37.3828V32.8711C35.0195 32.6348 34.8262 32.4414 34.5898 32.4414H32.4414C32.2051 32.4414 32.0117 32.6348 32.0117 32.8711V34.8047H22.9883V32.8711C22.9883 32.6348 22.7949 32.4414 22.5586 32.4414H20.4102C20.1738 32.4414 19.9805 32.6348 19.9805 32.8711V37.3828C19.9805 37.6191 20.1738 37.8125 20.4102 37.8125ZM38.6719 31.2061C38.6719 31.7759 38.8982 32.3223 39.3011 32.7252C39.704 33.1281 40.2505 33.3545 40.8203 33.3545C41.3901 33.3545 41.9366 33.1281 42.3395 32.7252C42.7424 32.3223 42.9688 31.7759 42.9688 31.2061C42.9688 30.6363 42.7424 30.0898 42.3395 29.6869C41.9366 29.284 41.3901 29.0576 40.8203 29.0576C40.2505 29.0576 39.704 29.284 39.3011 29.6869C38.8982 30.0898 38.6719 30.6363 38.6719 31.2061ZM51.5088 22.2041L50.2358 19.9805C50.1786 19.8824 50.0849 19.811 49.9752 19.7819C49.8655 19.7527 49.7488 19.7681 49.6504 19.8247L46.9272 21.4146L42.7217 9.80225C42.4996 9.10934 42.0631 8.50494 41.4752 8.07629C40.8873 7.64764 40.1783 7.41693 39.4507 7.41748H16.1777C14.314 7.41748 12.6597 8.62061 12.085 10.3984L8.07813 21.4199L5.34961 19.8301C5.25124 19.7735 5.13446 19.758 5.02477 19.7872C4.91508 19.8164 4.82139 19.8878 4.76416 19.9858L3.49121 22.2041C3.37305 22.4082 3.44287 22.666 3.64697 22.7842L6.89112 24.6748L6.11231 26.8232C6.04785 26.9951 6.01563 27.1777 6.01563 27.3604V46.0625C6.01563 46.9058 6.64942 47.5879 7.42822 47.5879H11.0591C11.7197 47.5879 12.2944 47.0884 12.4341 46.3901L12.8477 44.3652H42.1523L42.5659 46.3901C42.7109 47.0884 43.2803 47.5879 43.9409 47.5879H47.5718C48.3506 47.5879 48.9844 46.9058 48.9844 46.0625V27.3604C48.9844 27.1777 48.9522 26.9951 48.8877 26.8232L48.1089 24.6748L51.3477 22.7842C51.4452 22.7279 51.5167 22.6356 51.5468 22.5271C51.5769 22.4186 51.5633 22.3026 51.5088 22.2041ZM45.1172 27.7686V40.498H9.88281V27.7686L10.7207 25.459H44.2793L45.1172 27.7686ZM15.7212 11.7144L15.748 11.6445L15.7695 11.5747C15.8286 11.3975 15.9897 11.2793 16.1777 11.2793H39.1445L43.1943 22.4512H11.8164L15.7212 11.7144ZM12.0313 31.2061C12.0313 31.7759 12.2576 32.3223 12.6605 32.7252C13.0634 33.1281 13.6099 33.3545 14.1797 33.3545C14.7495 33.3545 15.296 33.1281 15.6989 32.7252C16.1018 32.3223 16.3281 31.7759 16.3281 31.2061C16.3281 30.6363 16.1018 30.0898 15.6989 29.6869C15.296 29.284 14.7495 29.0576 14.1797 29.0576C13.6099 29.0576 13.0634 29.284 12.6605 29.6869C12.2576 30.0898 12.0313 30.6363 12.0313 31.2061Z" fill="black"/>
</svg>
